<?xml version="1.0" encoding="utf-8"?>
<!-- Generator: Adobe Illustrator 25.4.1, SVG Export Plug-In . SVG Version: 6.00 Build 0)  -->
<svg version="1.1" xmlns="http://www.w3.org/2000/svg" xmlns:xlink="http://www.w3.org/1999/xlink" x="0px" y="0px"
	 viewBox="0 0 1000 1000" style="enable-background:new 0 0 1000 1000;" xml:space="preserve">
<style type="text/css">
	.st0{opacity:0;fill:#FF0000;}
	.st1{fill:#FF0000;}
</style>
<g id="Layer_1">
</g>
<g id="Слой_2">
	<g>
		<polygon class="st0" points="999,505 951,505 951,515 949,515 949,505 901,505 901,515 899,515 899,505 851,505 851,515 849,515 
			849,505 801,505 801,515 799,515 799,505 751,505 751,535 749,535 749,501 701,501 701,515 699,515 699,501 651,501 651,515 
			649,515 649,501 601,501 601,515 599,515 599,501 551,501 551,515 549,515 549,501 501,501 501,515 501,549 515,549 515,551 
			501,551 501,599 515,599 515,601 501,601 501,649 515,649 515,651 501,651 501,699 515,699 515,701 501,701 501,749 535,749 
			535,751 505,751 505,799 515,799 515,801 505,801 505,849 515,849 515,851 505,851 505,899 515,899 515,901 505,901 505,949 
			515,949 515,951 505,951 505,999 535,999 535,1000 1000,1000 1000,535 999,535 		"/>
		<polygon class="st0" points="505,1 505,49 515,49 515,51 505,51 505,99 515,99 515,101 505,101 505,149 515,149 515,151 505,151 
			505,199 515,199 515,201 505,201 505,249 535,249 535,251 501,251 501,299 515,299 515,301 501,301 501,349 515,349 515,351 
			501,351 501,399 515,399 515,401 501,401 501,449 515,449 515,451 501,451 501,485 501,499 549,499 549,485 551,485 551,499 
			599,499 599,485 601,485 601,499 649,499 649,485 651,485 651,499 699,499 699,485 701,485 701,499 749,499 749,465 751,465 
			751,495 799,495 799,485 801,485 801,495 849,495 849,485 851,485 851,495 899,495 899,485 901,485 901,495 949,495 949,485 
			951,485 951,495 999,495 999,465 1000,465 1000,0 535,0 535,1 		"/>
		<polygon class="st0" points="495,999 495,951 485,951 485,949 495,949 495,901 485,901 485,899 495,899 495,851 485,851 485,849 
			495,849 495,801 485,801 485,799 495,799 495,751 465,751 465,749 499,749 499,701 485,701 485,699 499,699 499,651 485,651 
			485,649 499,649 499,601 485,601 485,599 499,599 499,551 485,551 485,549 499,549 499,515 499,501 451,501 451,515 449,515 
			449,501 401,501 401,515 399,515 399,501 351,501 351,515 349,515 349,501 301,501 301,515 299,515 299,501 251,501 251,535 
			249,535 249,505 201,505 201,515 199,515 199,505 151,505 151,515 149,515 149,505 101,505 101,515 99,515 99,505 51,505 51,515 
			49,515 49,505 1,505 1,535 0,535 0,1000 465,1000 465,999 		"/>
		<polygon class="st0" points="0,465 1,465 1,495 49,495 49,485 51,485 51,495 99,495 99,485 101,485 101,495 149,495 149,485 
			151,485 151,495 199,495 199,485 201,485 201,495 249,495 249,465 251,465 251,499 299,499 299,485 301,485 301,499 349,499 
			349,485 351,485 351,499 399,499 399,485 401,485 401,499 449,499 449,485 451,485 451,499 499,499 499,485 499,451 485,451 
			485,449 499,449 499,401 485,401 485,399 499,399 499,351 485,351 485,349 499,349 499,301 485,301 485,299 499,299 499,251 
			465,251 465,249 495,249 495,201 485,201 485,199 495,199 495,151 485,151 485,149 495,149 495,101 485,101 485,99 495,99 495,51 
			485,51 485,49 495,49 495,1 465,1 465,0 0,0 		"/>
		<polygon class="st1" points="495,1 495,49 485,49 485,51 495,51 495,99 485,99 485,101 495,101 495,149 485,149 485,151 495,151 
			495,199 485,199 485,201 495,201 495,249 465,249 465,251 499,251 499,299 485,299 485,301 499,301 499,349 485,349 485,351 
			499,351 499,399 485,399 485,401 499,401 499,449 485,449 485,451 499,451 499,485 499,499 451,499 451,485 449,485 449,499 
			401,499 401,485 399,485 399,499 351,499 351,485 349,485 349,499 301,499 301,485 299,485 299,499 251,499 251,465 249,465 
			249,495 201,495 201,485 199,485 199,495 151,495 151,485 149,485 149,495 101,495 101,485 99,485 99,495 51,495 51,485 49,485 
			49,495 1,495 1,465 0,465 0,535 1,535 1,505 49,505 49,515 51,515 51,505 99,505 99,515 101,515 101,505 149,505 149,515 151,515 
			151,505 199,505 199,515 201,515 201,505 249,505 249,535 251,535 251,501 299,501 299,515 301,515 301,501 349,501 349,515 
			351,515 351,501 399,501 399,515 401,515 401,501 449,501 449,515 451,515 451,501 499,501 499,515 499,549 485,549 485,551 
			499,551 499,599 485,599 485,601 499,601 499,649 485,649 485,651 499,651 499,699 485,699 485,701 499,701 499,749 465,749 
			465,751 495,751 495,799 485,799 485,801 495,801 495,849 485,849 485,851 495,851 495,899 485,899 485,901 495,901 495,949 
			485,949 485,951 495,951 495,999 465,999 465,1000 535,1000 535,999 505,999 505,951 515,951 515,949 505,949 505,901 515,901 
			515,899 505,899 505,851 515,851 515,849 505,849 505,801 515,801 515,799 505,799 505,751 535,751 535,749 501,749 501,701 
			515,701 515,699 501,699 501,651 515,651 515,649 501,649 501,601 515,601 515,599 501,599 501,551 515,551 515,549 501,549 
			501,515 501,501 549,501 549,515 551,515 551,501 599,501 599,515 601,515 601,501 649,501 649,515 651,515 651,501 699,501 
			699,515 701,515 701,501 749,501 749,535 751,535 751,505 799,505 799,515 801,515 801,505 849,505 849,515 851,515 851,505 
			899,505 899,515 901,515 901,505 949,505 949,515 951,515 951,505 999,505 999,535 1000,535 1000,465 999,465 999,495 951,495 
			951,485 949,485 949,495 901,495 901,485 899,485 899,495 851,495 851,485 849,485 849,495 801,495 801,485 799,485 799,495 
			751,495 751,465 749,465 749,499 701,499 701,485 699,485 699,499 651,499 651,485 649,485 649,499 601,499 601,485 599,485 
			599,499 551,499 551,485 549,485 549,499 501,499 501,485 501,451 515,451 515,449 501,449 501,401 515,401 515,399 501,399 
			501,351 515,351 515,349 501,349 501,301 515,301 515,299 501,299 501,251 535,251 535,249 505,249 505,201 515,201 515,199 
			505,199 505,151 515,151 515,149 505,149 505,101 515,101 515,99 505,99 505,51 515,51 515,49 505,49 505,1 535,1 535,0 465,0 
			465,1 		"/>
	</g>
</g>
</svg>
